<?xml version="1.0" encoding="utf-8"?>
<!-- Generator: Adobe Illustrator 20.1.0, SVG Export Plug-In . SVG Version: 6.00 Build 0)  -->
<svg version="1.1" id="Capa_1" xmlns="http://www.w3.org/2000/svg" xmlns:xlink="http://www.w3.org/1999/xlink" x="0px" y="0px"
	 viewBox="0 0 306 276.7" style="enable-background:new 0 0 306 276.7;" xml:space="preserve">
<style type="text/css">
	.st0{fill:#FFFFFF;}
	.st1{font-family:'OpenSans-Bold';}
	.st2{font-size:50px;}
</style>
<title>Recurso 3</title>
<g>
	<path class="st0" d="M300.4,75.1l-101-70.7c-2.7-1.9-6.4-1.9-9.1,0L173.8,16L157.1,4.4c-2.7-1.9-6.4-1.9-9.1,0l-16.2,11.3
		L115.7,4.4c-2.7-1.9-6.4-1.9-9.1,0L5.6,75.1c-1.9,1.3-3,3.4-3,5.6v119c0,3.9,3.4,7,7.5,7h285.8c4.2,0,7.5-3.1,7.5-7v-119
		C303.4,78.5,302.3,76.4,300.4,75.1z M288.3,192.6h-27.3v-112c0-2.2-1.1-4.3-3-5.6l-71.8-50.3l8.6-6l93.5,65.4V192.6z M219.7,192.6
		v-112c0-2.2-1.1-4.3-3-5.6l-72.3-50.5l8.2-5.7L246,84.2v108.5H219.7L219.7,192.6z M123.5,192.6H98.8v-50.8h24.7L123.5,192.6z
		 M138.6,192.6v-57.8c0-3.9-3.4-7-7.5-7H91.2c-4.2,0-7.5,3.1-7.5,7v57.8h-66V84.2l93.5-65.4l93.5,65.4v108.5H138.6z"/>
	<text transform="matrix(1 0 0 1 2.2432 261.26)" class="st0 st1 st2">Find Houses</text>
</g>
</svg>
